<svg width="55" height="105" viewBox="0 0 55 105" fill="none" xmlns="http://www.w3.org/2000/svg">
<g filter="url(#filter0_d_70_13)">
<path fill-rule="evenodd" clip-rule="evenodd" d="M0 90.931C0.827506 90.9768 1.66104 91 2.5 91C27.0767 91 47 71.0767 47 46.5C47 21.9233 27.0767 2 2.5 2C1.66104 2 0.827506 2.02322 0 2.06904V27.1588C0.818549 27.054 1.65297 27 2.5 27C13.2696 27 22 35.7304 22 46.5C22 57.2696 13.2696 66 2.5 66C1.65297 66 0.818549 65.946 0 65.8412V90.931Z" fill="url(#paint0_linear_70_13)"/>
</g>
<defs>
<filter id="filter0_d_70_13" x="-8" y="0" width="63" height="105" filterUnits="userSpaceOnUse" color-interpolation-filters="sRGB">
<feFlood flood-opacity="0" result="BackgroundImageFix"/>
<feColorMatrix in="SourceAlpha" type="matrix" values="0 0 0 0 0 0 0 0 0 0 0 0 0 0 0 0 0 0 127 0" result="hardAlpha"/>
<feOffset dy="6"/>
<feGaussianBlur stdDeviation="4"/>
<feComposite in2="hardAlpha" operator="out"/>
<feColorMatrix type="matrix" values="0 0 0 0 0 0 0 0 0 0 0 0 0 0 0 0 0 0 0.3 0"/>
<feBlend mode="normal" in2="BackgroundImageFix" result="effect1_dropShadow_70_13"/>
<feBlend mode="normal" in="SourceGraphic" in2="effect1_dropShadow_70_13" result="shape"/>
</filter>
<linearGradient id="paint0_linear_70_13" x1="0" y1="46.5" x2="47" y2="46.5" gradientUnits="userSpaceOnUse">
<stop stop-color="#FFBB00"/>
<stop offset="1" stop-color="#FF6E05"/>
</linearGradient>
</defs>
</svg>
