<svg width="101" height="190" viewBox="0 0 101 190" fill="none" xmlns="http://www.w3.org/2000/svg">
<g filter="url(#filter0_d_70_5)">
<path fill-rule="evenodd" clip-rule="evenodd" d="M102 2.27752C99.6909 2.09368 97.3564 2 95 2C46.9512 2 8 40.9512 8 89C8 137.049 46.9512 176 95 176C97.3564 176 99.6909 175.906 102 175.722V135.482C99.7162 135.823 97.3787 136 95 136C69.0426 136 48 114.957 48 89C48 63.0426 69.0426 42 95 42C97.3787 42 99.7162 42.1767 102 42.5177V2.27752Z" fill="url(#paint0_linear_70_5)"/>
</g>
<defs>
<filter id="filter0_d_70_5" x="0" y="0" width="110" height="190" filterUnits="userSpaceOnUse" color-interpolation-filters="sRGB">
<feFlood flood-opacity="0" result="BackgroundImageFix"/>
<feColorMatrix in="SourceAlpha" type="matrix" values="0 0 0 0 0 0 0 0 0 0 0 0 0 0 0 0 0 0 127 0" result="hardAlpha"/>
<feOffset dy="6"/>
<feGaussianBlur stdDeviation="4"/>
<feComposite in2="hardAlpha" operator="out"/>
<feColorMatrix type="matrix" values="0 0 0 0 0 0 0 0 0 0 0 0 0 0 0 0 0 0 0.3 0"/>
<feBlend mode="normal" in2="BackgroundImageFix" result="effect1_dropShadow_70_5"/>
<feBlend mode="normal" in="SourceGraphic" in2="effect1_dropShadow_70_5" result="shape"/>
</filter>
<linearGradient id="paint0_linear_70_5" x1="8" y1="89" x2="102" y2="89" gradientUnits="userSpaceOnUse">
<stop stop-color="#9700B5"/>
<stop offset="1" stop-color="#370042"/>
</linearGradient>
</defs>
</svg>
