<svg width="9" height="14" viewBox="0 0 9 14" fill="none" xmlns="http://www.w3.org/2000/svg">
<path d="M5.75 7L0.875 2.125C0.645833 1.89583 0.53125 1.60417 0.53125 1.25C0.53125 0.895833 0.645833 0.604167 0.875 0.375C1.10417 0.145833 1.39583 0.03125 1.75 0.03125C2.10417 0.03125 2.39583 0.145833 2.625 0.375L8.375 6.125C8.5 6.25 8.58854 6.38542 8.64062 6.53125C8.69271 6.67708 8.71875 6.83333 8.71875 7C8.71875 7.16667 8.69271 7.32292 8.64062 7.46875C8.58854 7.61458 8.5 7.75 8.375 7.875L2.625 13.625C2.39583 13.8542 2.10417 13.9688 1.75 13.9688C1.39583 13.9688 1.10417 13.8542 0.875 13.625C0.645833 13.3958 0.53125 13.1042 0.53125 12.75C0.53125 12.3958 0.645833 12.1042 0.875 11.875L5.75 7Z" fill="url(#paint0_linear_73_74)"/>
<defs>
<linearGradient id="paint0_linear_73_74" x1="0.53125" y1="7" x2="8.71875" y2="7" gradientUnits="userSpaceOnUse">
<stop stop-color="#FFBB00"/>
<stop offset="1" stop-color="#FF6E05"/>
</linearGradient>
</defs>
</svg>
