<svg width="32" height="32" viewBox="0 0 32 32" fill="none" xmlns="http://www.w3.org/2000/svg">
<path d="M15.9501 3.24219C8.96137 3.24219 3.27212 8.92654 3.26958 15.9153C3.26831 18.1492 3.85343 20.3301 4.96279 22.2518L3.24231 28.628L9.88377 27.0587C11.7357 28.0691 13.8204 28.5994 15.9426 28.6007H15.9476C22.935 28.6007 28.6218 22.9151 28.6256 15.9277C28.6282 12.5399 27.3108 9.35475 24.9169 6.95833C22.523 4.56318 19.3416 3.24346 15.9501 3.24219ZM15.9476 5.78077C18.6588 5.78204 21.2067 6.8391 23.1221 8.75319C25.0374 10.6698 26.0896 13.2165 26.0871 15.9252C26.0845 21.5151 21.5376 26.0621 15.9451 26.0621C14.2532 26.0609 12.5772 25.636 11.101 24.83L10.2457 24.364L9.30119 24.5871L6.80227 25.1771L7.41213 22.9112L7.6873 21.8948L7.16174 20.9825C6.27577 19.4492 5.80689 17.6961 5.80816 15.9153C5.8107 10.3278 10.3589 5.78077 15.9476 5.78077ZM11.4629 10.0646C11.251 10.0646 10.9082 10.144 10.6176 10.4613C10.3269 10.7773 9.50695 11.5428 9.50695 13.1015C9.50695 14.6602 10.6424 16.1669 10.801 16.3788C10.9584 16.5895 12.9927 19.8892 16.2129 21.1585C18.8885 22.2133 19.432 22.0051 20.0133 21.9518C20.5946 21.8998 21.8887 21.187 22.1527 20.447C22.4168 19.707 22.4174 19.0705 22.3387 18.9397C22.26 18.8077 22.0486 18.729 21.7313 18.5704C21.4153 18.4117 19.8577 17.6469 19.5671 17.5415C19.2764 17.4362 19.0638 17.3829 18.8531 17.7002C18.6424 18.0175 18.0369 18.729 17.8515 18.9397C17.6662 19.1517 17.4822 19.1802 17.1648 19.0215C16.8475 18.8616 15.8272 18.5262 14.6163 17.4473C13.6745 16.6083 13.039 15.5731 12.8537 15.2558C12.6697 14.9398 12.8364 14.7662 12.995 14.6088C13.1372 14.4666 13.3099 14.2388 13.4685 14.0535C13.6259 13.8681 13.6805 13.7361 13.7858 13.5254C13.8912 13.3147 13.8373 13.1288 13.7586 12.9701C13.6799 12.8114 13.0636 11.247 12.7818 10.6199C12.5445 10.0932 12.2938 10.0809 12.0678 10.0721C11.8838 10.0644 11.6736 10.0646 11.4629 10.0646Z" fill="url(#paint0_linear_73_114)"/>
<defs>
<linearGradient id="paint0_linear_73_114" x1="3.24231" y1="15.9351" x2="28.6256" y2="15.9351" gradientUnits="userSpaceOnUse">
<stop stop-color="#FFBB00"/>
<stop offset="1" stop-color="#FF6E05"/>
</linearGradient>
</defs>
</svg>
