<svg width="35" height="35" viewBox="0 0 35 35" fill="none" xmlns="http://www.w3.org/2000/svg">
<path d="M12.5439 5.46875C8.66028 5.46875 5.46875 8.65601 5.46875 12.5439V22.4561C5.46875 26.3397 8.65601 29.5312 12.5439 29.5312H22.4561C26.3397 29.5312 29.5312 26.344 29.5312 22.4561V12.5439C29.5312 8.66028 26.344 5.46875 22.4561 5.46875H12.5439ZM12.5439 7.65625H22.4561C25.1605 7.65625 27.3438 9.83948 27.3438 12.5439V22.4561C27.3438 25.1605 25.1605 27.3438 22.4561 27.3438H12.5439C9.83948 27.3438 7.65625 25.1605 7.65625 22.4561V12.5439C7.65625 9.83948 9.83948 7.65625 12.5439 7.65625ZM23.96 10.0488C23.4088 10.0488 22.9688 10.4889 22.9688 11.04C22.9688 11.5912 23.4088 12.0312 23.96 12.0312C24.5111 12.0312 24.9512 11.5912 24.9512 11.04C24.9512 10.4889 24.5111 10.0488 23.96 10.0488ZM17.5 10.9375C13.8898 10.9375 10.9375 13.8898 10.9375 17.5C10.9375 21.1102 13.8898 24.0625 17.5 24.0625C21.1102 24.0625 24.0625 21.1102 24.0625 17.5C24.0625 13.8898 21.1102 10.9375 17.5 10.9375ZM17.5 13.125C19.931 13.125 21.875 15.069 21.875 17.5C21.875 19.931 19.931 21.875 17.5 21.875C15.069 21.875 13.125 19.931 13.125 17.5C13.125 15.069 15.069 13.125 17.5 13.125Z" fill="url(#paint0_linear_73_122)"/>
<defs>
<linearGradient id="paint0_linear_73_122" x1="5.46875" y1="17.5" x2="29.5312" y2="17.5" gradientUnits="userSpaceOnUse">
<stop stop-color="#FFBB00"/>
<stop offset="1" stop-color="#FF6E05"/>
</linearGradient>
</defs>
</svg>
