<svg width="54" height="54" viewBox="0 0 54 54" fill="none" xmlns="http://www.w3.org/2000/svg">
<path d="M24.9751 42.75H28.9126V39.9375C30.7876 39.6 32.4001 38.8687 33.7501 37.7437C35.1001 36.6187 35.7751 34.95 35.7751 32.7375C35.7751 31.1625 35.3251 29.7188 34.4251 28.4062C33.5251 27.0938 31.7251 25.95 29.0251 24.975C26.7751 24.225 25.2189 23.5688 24.3564 23.0063C23.4939 22.4438 23.0626 21.675 23.0626 20.7C23.0626 19.725 23.4095 18.9562 24.1032 18.3937C24.797 17.8312 25.8001 17.55 27.1126 17.55C28.3126 17.55 29.2501 17.8406 29.9251 18.4219C30.6001 19.0031 31.0876 19.725 31.3876 20.5875L34.9876 19.125C34.5751 17.8125 33.8157 16.6687 32.7095 15.6937C31.6032 14.7188 30.3751 14.175 29.0251 14.0625V11.25H25.0876V14.0625C23.2126 14.475 21.7501 15.3 20.7001 16.5375C19.6501 17.775 19.1251 19.1625 19.1251 20.7C19.1251 22.4625 19.6407 23.8875 20.672 24.975C21.7032 26.0625 23.3251 27 25.5376 27.7875C27.9001 28.65 29.5407 29.4187 30.4595 30.0938C31.3782 30.7687 31.8376 31.65 31.8376 32.7375C31.8376 33.975 31.397 34.8844 30.5157 35.4656C29.6345 36.0469 28.5751 36.3375 27.3376 36.3375C26.1001 36.3375 25.0032 35.9531 24.047 35.1844C23.0907 34.4156 22.3876 33.2625 21.9376 31.725L18.2251 33.1875C18.7501 34.9875 19.5657 36.4406 20.672 37.5469C21.7782 38.6531 23.2126 39.4125 24.9751 39.825V42.75ZM27.0001 49.5C23.8876 49.5 20.9626 48.9094 18.2251 47.7281C15.4876 46.5469 13.1064 44.9437 11.0814 42.9188C9.05637 40.8937 7.45325 38.5125 6.272 35.775C5.09075 33.0375 4.50012 30.1125 4.50012 27C4.50012 23.8875 5.09075 20.9625 6.272 18.225C7.45325 15.4875 9.05637 13.1062 11.0814 11.0812C13.1064 9.05625 15.4876 7.45312 18.2251 6.27187C20.9626 5.09062 23.8876 4.5 27.0001 4.5C30.1126 4.5 33.0376 5.09062 35.7751 6.27187C38.5126 7.45312 40.8939 9.05625 42.9189 11.0812C44.9439 13.1062 46.547 15.4875 47.7282 18.225C48.9095 20.9625 49.5001 23.8875 49.5001 27C49.5001 30.1125 48.9095 33.0375 47.7282 35.775C46.547 38.5125 44.9439 40.8937 42.9189 42.9188C40.8939 44.9437 38.5126 46.5469 35.7751 47.7281C33.0376 48.9094 30.1126 49.5 27.0001 49.5ZM27.0001 45C32.0251 45 36.2814 43.2562 39.7689 39.7687C43.2564 36.2812 45.0001 32.025 45.0001 27C45.0001 21.975 43.2564 17.7188 39.7689 14.2312C36.2814 10.7437 32.0251 9 27.0001 9C21.9751 9 17.7189 10.7437 14.2314 14.2312C10.7439 17.7188 9.00012 21.975 9.00012 27C9.00012 32.025 10.7439 36.2812 14.2314 39.7687C17.7189 43.2562 21.9751 45 27.0001 45Z" fill="url(#paint0_linear_2_141)"/>
<defs>
<linearGradient id="paint0_linear_2_141" x1="4.50012" y1="27" x2="49.5001" y2="27" gradientUnits="userSpaceOnUse">
<stop stop-color="#FFBB00"/>
<stop offset="1" stop-color="#FF6E05"/>
</linearGradient>
</defs>
</svg>
