<svg width="55" height="55" viewBox="0 0 55 55" fill="none" xmlns="http://www.w3.org/2000/svg">
<path d="M47.5222 25.3229V43.5417C47.5222 44.8021 47.0872 45.8811 46.2172 46.7786C45.3472 47.6762 44.3013 48.125 43.0796 48.125H11.981C10.7593 48.125 9.71344 47.6762 8.84342 46.7786C7.9734 45.8811 7.53839 44.8021 7.53839 43.5417V25.3229C6.68688 24.5208 6.02974 23.4896 5.56696 22.2292C5.10419 20.9688 5.09493 19.5938 5.5392 18.1042L7.87159 10.3125C8.16777 9.31944 8.69533 8.49826 9.45428 7.84896C10.2132 7.19965 11.0925 6.875 12.0921 6.875H42.9685C43.9681 6.875 44.8381 7.1901 45.5786 7.82031C46.319 8.45052 46.8558 9.28125 47.189 10.3125L49.5214 18.1042C49.9657 19.5938 49.9564 20.9497 49.4937 22.1719C49.0309 23.3941 48.3737 24.4444 47.5222 25.3229ZM32.4172 22.9167C33.4168 22.9167 34.1758 22.5634 34.6941 21.8568C35.2124 21.1502 35.416 20.3576 35.3049 19.4792L34.0832 11.4583H29.7516V19.9375C29.7516 20.7396 30.0108 21.4366 30.5291 22.0286C31.0474 22.6207 31.6768 22.9167 32.4172 22.9167ZM22.4213 22.9167C23.2728 22.9167 23.9669 22.6207 24.5038 22.0286C25.0406 21.4366 25.309 20.7396 25.309 19.9375V11.4583H20.9774L19.7557 19.4792C19.6076 20.3958 19.802 21.1979 20.3388 21.8854C20.8756 22.5729 21.5698 22.9167 22.4213 22.9167ZM12.5364 22.9167C13.2028 22.9167 13.7859 22.6684 14.2857 22.1719C14.7855 21.6753 15.0909 21.0451 15.202 20.2812L16.4237 11.4583H12.0921L9.87078 19.1354C9.64865 19.8993 9.76897 20.7205 10.2317 21.599C10.6945 22.4774 11.4627 22.9167 12.5364 22.9167ZM42.5243 22.9167C43.5979 22.9167 44.3754 22.4774 44.8566 21.599C45.3379 20.7205 45.449 19.8993 45.1898 19.1354L42.8575 11.4583H38.6369L39.8587 20.2812C39.9697 21.0451 40.2752 21.6753 40.775 22.1719C41.2748 22.6684 41.8579 22.9167 42.5243 22.9167ZM11.981 43.5417H43.0796V27.3854C42.8945 27.4618 42.7742 27.5 42.7186 27.5H42.5243C41.5247 27.5 40.6454 27.3281 39.8864 26.9844C39.1275 26.6406 38.3778 26.0868 37.6373 25.3229C36.9709 26.0104 36.212 26.5451 35.3605 26.9271C34.509 27.309 33.6019 27.5 32.6394 27.5C31.6398 27.5 30.705 27.309 29.8349 26.9271C28.9649 26.5451 28.1967 26.0104 27.5303 25.3229C26.9009 26.0104 26.1698 26.5451 25.3368 26.9271C24.5038 27.309 23.606 27.5 22.6434 27.5C21.5698 27.5 20.5979 27.309 19.7279 26.9271C18.8579 26.5451 18.0897 26.0104 17.4233 25.3229C16.6458 26.125 15.8776 26.6884 15.1187 27.013C14.3597 27.3377 13.4989 27.5 12.5364 27.5H12.2865C12.1939 27.5 12.0921 27.4618 11.981 27.3854V43.5417Z" fill="url(#paint0_linear_2_135)"/>
<defs>
<linearGradient id="paint0_linear_2_135" x1="5.2128" y1="27.5" x2="49.8478" y2="27.5" gradientUnits="userSpaceOnUse">
<stop stop-color="#FFBB00"/>
<stop offset="1" stop-color="#FF6E05"/>
</linearGradient>
</defs>
</svg>
