<svg width="54" height="55" viewBox="0 0 54 55" fill="none" xmlns="http://www.w3.org/2000/svg">
<g clip-path="url(#clip0_2_129)">
<path d="M4.5658 44.1358C3.40441 44.1358 2.41018 43.7056 1.58313 42.8452C0.756072 41.9848 0.342545 40.9505 0.342545 39.7422H8.78906C7.62767 39.7422 6.63344 39.312 5.80639 38.4516C4.97933 37.5912 4.5658 36.5569 4.5658 35.3486V11.1838C4.5658 9.97553 4.97933 8.9412 5.80639 8.08078C6.63344 7.22037 7.62767 6.79016 8.78906 6.79016H42.5751C43.7365 6.79016 44.7308 7.22037 45.5578 8.08078C46.3849 8.9412 46.7984 9.97553 46.7984 11.1838V35.3486C46.7984 36.5569 46.3849 37.5912 45.5578 38.4516C44.7308 39.312 43.7365 39.7422 42.5751 39.7422H51.0217C51.0217 40.9505 50.6081 41.9848 49.7811 42.8452C48.954 43.7056 47.9598 44.1358 46.7984 44.1358H4.5658ZM25.6821 41.939C26.2804 41.939 26.7819 41.7285 27.1866 41.3075C27.5914 40.8864 27.7937 40.3647 27.7937 39.7422C27.7937 39.1198 27.5914 38.5981 27.1866 38.177C26.7819 37.756 26.2804 37.5454 25.6821 37.5454C25.0838 37.5454 24.5823 37.756 24.1776 38.177C23.7728 38.5981 23.5705 39.1198 23.5705 39.7422C23.5705 40.3647 23.7728 40.8864 24.1776 41.3075C24.5823 41.7285 25.0838 41.939 25.6821 41.939ZM8.78906 35.3486H42.5751V11.1838H8.78906V35.3486Z" fill="white"/>
</g>
<defs>
<clipPath id="clip0_2_129">
<rect width="53.3118" height="55" fill="white" transform="translate(0.342545)"/>
</clipPath>
</defs>
</svg>
