<svg width="42" height="35" viewBox="0 0 42 35" fill="none" xmlns="http://www.w3.org/2000/svg">
<g clip-path="url(#clip0_116_139)">
<path fill-rule="evenodd" clip-rule="evenodd" d="M22.3848 12.3749V29.8973C22.3848 32.214 24.4939 34.3837 26.811 34.3837H36.6849C38.9963 34.3837 41.1111 32.2085 41.1111 29.8973V20.2472C41.1111 17.8877 39.0345 15.7456 36.1747 15.7603C34.5859 15.7685 32.9961 15.7551 31.4072 15.7611C30.4521 15.7647 30.0606 15.6966 29.52 15.2677C28.5033 14.461 28.6837 13.6298 28.6837 12.3749C28.6837 10.0011 30.3194 8.17384 31.8358 7.29858C34.0305 6.03182 36.075 6.85588 37.1142 6.36847C37.5411 6.16819 37.9617 5.71441 37.9617 5.09502V1.62439C37.9617 0.986977 37.1868 0.27002 36.3444 0.27002H35.1527C29.7038 0.27002 25.7783 3.10898 23.6332 7.35228C22.9996 8.60557 22.3848 10.5347 22.3848 12.3749L22.3848 12.3749Z" fill="url(#paint0_linear_116_139)"/>
<path fill-rule="evenodd" clip-rule="evenodd" d="M0.594501 12.3749V29.8973C0.594501 32.214 2.70358 34.3837 5.0207 34.3837H14.8945C17.2059 34.3837 19.3207 32.2085 19.3207 29.8973V20.2472C19.3207 17.8877 17.2442 15.7456 14.3844 15.7603C12.7956 15.7685 11.2058 15.7551 9.6169 15.7611C8.66182 15.7647 8.27025 15.6966 7.7297 15.2677C6.71297 14.461 6.89336 13.6298 6.89336 12.3749C6.89336 10.0011 8.52907 8.17384 10.0454 7.29858C12.2402 6.03182 14.2847 6.85588 15.3239 6.36847C15.7508 6.16819 16.1713 5.71441 16.1713 5.09502V1.62439C16.1713 0.986977 15.3965 0.27002 14.5541 0.27002H13.3624C7.91348 0.27002 3.98802 3.10898 1.84288 7.35228C1.20929 8.60557 0.594525 10.5347 0.594525 12.3749L0.594501 12.3749Z" fill="url(#paint1_linear_116_139)"/>
</g>
<defs>
<linearGradient id="paint0_linear_116_139" x1="22.3848" y1="17.3269" x2="41.1111" y2="17.3269" gradientUnits="userSpaceOnUse">
<stop stop-color="#9700B5"/>
<stop offset="1" stop-color="#370042"/>
</linearGradient>
<linearGradient id="paint1_linear_116_139" x1="0.594501" y1="17.3269" x2="19.3207" y2="17.3269" gradientUnits="userSpaceOnUse">
<stop stop-color="#9700B5"/>
<stop offset="1" stop-color="#370042"/>
</linearGradient>
<clipPath id="clip0_116_139">
<rect width="40.5168" height="34.1137" fill="white" transform="translate(0.59429 0.27002)"/>
</clipPath>
</defs>
</svg>
